<svg id="Capa_1" enable-background="new 0 0 512 512" height="512" viewBox="0 0 512 512" width="512" xmlns="http://www.w3.org/2000/svg"><g><path d="m480.658 266.982c-15.911-6.436-36.742-9.979-58.658-9.979s-42.747 3.544-58.658 9.979c-27.27 11.031-31.342 26.888-31.342 35.358v74.44h-33.317c-4.386-13.128-14.662-23.579-27.683-28.197v-94.15c30.912-2.342 75-14.241 75-44.767v-149.326c0-60.484-180-60.401-180 0v149.326c0 30.48 43.968 42.416 75 44.767v94.15c-13.021 4.618-23.297 15.069-27.683 28.197h-33.317v-74.44c0-8.47-4.072-24.326-31.342-35.357-15.911-6.436-36.742-9.979-58.658-9.979s-42.747 3.544-58.658 9.979c-27.27 11.03-31.342 26.887-31.342 35.357v149.326c0 60.421 180 60.449 180 0v-44.886h33.862c6.406 17.053 22.875 29.223 42.138 29.223s35.732-12.17 42.138-29.223h33.862v44.886c0 60.421 180 60.449 180 0v-149.326c0-8.47-4.072-24.327-31.342-35.358zm-450.658 70.15c33.035 13.962 86.493 14.163 120 0v39.011c-2.488 4.701-23.137 15.806-60 15.806s-57.512-11.104-60-15.806zm60-50.129c35.688 0 56.181 10.408 59.708 15.337-3.527 4.929-24.02 15.337-59.708 15.337s-56.181-10.408-59.708-15.337c3.527-4.929 24.02-15.337 59.708-15.337zm0 180c-36.857 0-57.506-11.101-60-15.803v-39.796c33.321 14.064 86.675 14.068 120 0v39.796c-2.494 4.702-23.143 15.803-60 15.803zm106-371.871c33.189 14.029 86.653 14.096 120 0v39.011c-2.488 4.701-23.137 15.806-60 15.806s-57.512-11.104-60-15.806zm60-50.129c35.688 0 56.181 10.408 59.708 15.337-3.527 4.929-24.02 15.337-59.708 15.337s-56.181-10.408-59.708-15.337c3.527-4.929 24.02-15.337 59.708-15.337zm-60 164.197v-39.796c33.432 14.113 86.801 14.015 120 0v39.796c-2.494 4.702-23.143 15.803-60 15.803s-57.506-11.101-60-15.803zm60 196.803c-8.271 0-15-6.729-15-15s6.729-15 15-15 15 6.729 15 15-6.729 15-15 15zm226-29.86c-2.488 4.701-23.137 15.806-60 15.806s-57.512-11.104-60-15.806v-39.011c33.03 13.962 86.493 14.163 120 0zm-60-89.14c35.688 0 56.181 10.408 59.708 15.337-3.527 4.929-24.02 15.337-59.708 15.337s-56.181-10.408-59.708-15.337c3.527-4.929 24.02-15.337 59.708-15.337zm0 180c-36.857 0-57.506-11.101-60-15.803v-39.796c33.125 13.984 86.49 14.146 120 0v39.796c-2.494 4.702-23.143 15.803-60 15.803z"/></g></svg>